<svg width="103" height="41" viewBox="0 0 103 41" fill="none" xmlns="http://www.w3.org/2000/svg">
<path d="M4.529 17.21C3.80567 17.21 3.199 17.035 2.709 16.685C2.219 16.3303 1.848 15.852 1.596 15.25C1.344 14.648 1.218 13.969 1.218 13.213C1.218 12.457 1.34167 11.778 1.589 11.176C1.841 10.574 2.20967 10.1003 2.695 9.755C3.185 9.405 3.787 9.23 4.501 9.23C5.21033 9.23 5.82167 9.405 6.335 9.755C6.853 10.1003 7.252 10.574 7.532 11.176C7.812 11.7733 7.952 12.4523 7.952 13.213C7.952 13.969 7.812 14.6503 7.532 15.257C7.25667 15.859 6.86233 16.335 6.349 16.685C5.84033 17.035 5.23367 17.21 4.529 17.21ZM0.973 17V6.92H2.443V11.561H2.275V17H0.973ZM4.326 15.887C4.79267 15.887 5.17767 15.768 5.481 15.53C5.789 15.292 6.01767 14.9723 6.167 14.571C6.321 14.165 6.398 13.7123 6.398 13.213C6.398 12.7183 6.321 12.2703 6.167 11.869C6.01767 11.4677 5.78667 11.148 5.474 10.91C5.16133 10.672 4.76233 10.553 4.277 10.553C3.81967 10.553 3.44167 10.665 3.143 10.889C2.849 11.113 2.62967 11.4257 2.485 11.827C2.345 12.2283 2.275 12.6903 2.275 13.213C2.275 13.7357 2.345 14.1977 2.485 14.599C2.625 15.0003 2.84667 15.3153 3.15 15.544C3.45333 15.7727 3.84533 15.887 4.326 15.887ZM10.1947 20.36L11.6577 16.377L11.6787 17.553L8.38173 9.44H9.90773L12.3717 15.705H11.9237L14.2757 9.44H15.7597L11.5877 20.36H10.1947Z" fill="white" fill-opacity="0.5"/>
<path fill-rule="evenodd" clip-rule="evenodd" d="M56.6501 11.4598C59.2722 10.4273 62.1325 11.1922 63.0385 13.1687C63.9445 15.1452 62.5534 17.5844 59.9312 18.617C57.3092 19.6499 54.4488 18.8846 53.5428 16.9081C52.6367 14.9317 54.028 12.4923 56.6501 11.4598ZM57.1491 40.2308L61.2217 21H53.1516L49.0788 40.2308H57.1491ZM59.5468 37.6002C61.9215 39.7817 65.963 41 68.642 41C74.319 41 77.834 37.3932 77.8196 34.0499C77.8196 29.8904 73.6218 28.5008 71.6214 27.9427C70.1915 27.5437 69.7044 27.235 69.7044 26.8661C69.7044 26.2419 70.4793 26.0722 71.2006 26.0722C72.6943 26.0722 75.3267 27.0544 76.613 27.8533L80.064 22.9071C77.256 20.9396 74.4571 20.2308 71.7749 20.2308C69.4216 20.23 66.7316 21.0183 64.9968 22.4852C63.3373 23.8807 62.4397 25.7064 62.4397 27.4505C62.4397 30.6105 65.7766 31.9989 67.7938 32.6848C68.7645 33.0149 69.8707 33.4143 69.8707 33.9947C69.8707 34.506 69.283 34.7889 68.5228 34.7889C67.1148 34.7889 64.7549 33.9929 63.1345 32.8507L59.5468 37.6002ZM45.2867 21C42.7813 21 40.3167 22.3129 38.7994 24.8791H38.5431L38.5396 24.8792C38.2586 22.5729 36.531 21.0113 34.2561 21.0113C31.7545 21.0113 29.2937 22.3129 27.7764 24.8791H27.5146L28.3262 21.0987H20.1217L16 40.2308H24.2044C24.2044 40.2308 26.1424 31.2751 26.4836 29.6961C26.8247 28.1171 27.6969 27.57 28.4702 27.57C29.1901 27.5453 29.9741 28.1669 29.695 29.4554C29.416 30.7439 27.3587 40.2308 27.3587 40.2308H35.5529C35.5529 40.2308 37.4931 31.2638 37.8344 29.6848C38.1754 28.1058 39.0476 27.5589 39.8209 27.5589C40.541 27.534 41.325 28.1558 41.0457 29.4443C40.7668 30.7326 38.707 40.2308 38.707 40.2308H46.9013C46.9013 40.2308 48.9583 30.7078 49.7815 26.8985C50.5102 23.5257 48.1807 21 45.2867 21ZM90.1813 24.7293C91.7006 22.1381 94.1646 20.8237 96.6693 20.8237C99.5672 20.8237 101.579 23.3741 100.85 26.7796L97.9677 40.2308H89.7639C89.7639 40.2308 91.8231 30.6512 92.1024 29.3504C92.3818 28.0492 91.5969 27.4214 90.8759 27.4465C90.1017 27.4465 89.2281 27.9988 88.8866 29.5932C88.5451 31.1875 86.6046 40.2308 86.6046 40.2308H78.3892L84.3104 12.5385H92.5257L89.9191 24.7293H90.1813Z" fill="white"/>
</svg>
