<svg width="53" height="20" viewBox="0 0 53 20" fill="none" xmlns="http://www.w3.org/2000/svg">
<g clip-path="url(#clip0_11025_223)">
<path fill-rule="evenodd" clip-rule="evenodd" d="M14.855 8.70476C16.0784 6.78115 17.6514 6.12539 18.9184 6.12539C20.3603 6.12539 21.9333 7.08719 21.3215 10.1038L19.4864 19.4158H14.4618L15.86 12.3334C16.0347 11.3716 15.7289 10.8907 15.2045 10.8907C14.6802 10.8907 14.1122 11.2842 13.9375 12.3334L12.5393 19.4158H7.51458L8.91277 12.3334C9.0875 11.3716 8.78166 10.8907 8.25734 10.8907C7.73303 10.8907 7.16503 11.2842 6.99026 12.3334L5.59208 19.4158H0.567383L3.10157 6.47514H8.12627L7.68934 8.70476H7.9078C9.13125 6.78115 10.7042 6.12539 11.9712 6.12539C13.151 6.12539 14.4181 6.78115 14.5055 8.70476H14.6366H14.855ZM28.3999 6.47514H23.3752L20.841 19.4158H25.8657L28.3999 6.47514ZM33.0313 19.8092C30.8466 19.8092 28.5746 19.1535 27.0891 17.7544L29.3611 14.4319C31.8953 16.1806 34.1236 15.9183 34.1236 15.3063C34.1236 14.9128 33.4682 14.6505 32.6381 14.3445C31.1088 13.7761 28.9678 12.9892 28.9678 10.4972C28.9678 7.61182 32.07 6.08166 34.6043 6.08166C36.5704 6.08166 38.187 6.69372 39.7601 7.8304L37.5753 11.0655C35.216 9.44802 33.2497 9.75399 33.2497 10.4535C33.2497 10.6721 33.7304 10.847 34.3858 11.0655C35.9587 11.6339 38.5366 12.5083 38.5366 15.1751C38.5366 17.4485 36.483 19.8092 33.0313 19.8092ZM50.0278 6.12539C48.7608 6.12539 47.1879 6.82487 45.9645 8.70476H45.746L47.2753 1.01034H42.2506L38.624 19.4158H43.6487L45.0469 12.3334C45.2654 11.2842 45.7897 10.8907 46.3139 10.8907C46.8383 10.8907 47.1441 11.3716 46.9694 12.3334L45.5712 19.4158H50.5959L52.431 10.1038C53.0427 7.08719 51.4698 6.12539 50.0278 6.12539ZM29.5796 1.44752C29.0116 0.135969 27.2201 -0.388641 25.6035 0.310853C23.9869 1.01035 23.113 2.62792 23.681 3.93947C24.249 5.25103 26.0404 5.77563 27.657 5.07614C29.2737 4.37665 30.1475 2.75907 29.5796 1.44752Z" fill="currentColor"/>
</g>
<defs>
<clipPath id="clip0_11025_223">
<rect width="52.8246" height="19.8092" fill="white"/>
</clipPath>
</defs>
</svg>
