<svg xmlns="http://www.w3.org/2000/svg" fill="none" viewBox="0 0 113 18"><path fill="currentColor" fill-rule="evenodd" d="M41.03 13.5q2 0 3.26-1.13a5 5 0 0 0 1.65-2.57q.44-1.5-.2-2.57t-2.64-1.08a4.8 4.8 0 0 0-4.9 3.65q-.45 1.57.2 2.57.64 1.12 2.63 1.12m.5-1.8c-.4 0-.7-.15-.82-.52q-.2-.49.06-1.38.23-.82.72-1.37.49-.5 1.1-.49.62-.01.84.49.18.55-.06 1.37a3 3 0 0 1-.72 1.38q-.5.54-1.12.52m66.13-.35q-.55 0-.69-.45-.22-.44-.01-1.15.21-.75.66-1.16c.27-.3.6-.4.94-.44q1.18.01.77 1.64-.2.71-.62 1.15-.5.43-1.05.41m-2.34-5.03-2.61 9.28h2.68l.86-3.06q.44.9 1.46.9a4.2 4.2 0 0 0 2.48-.86q.62-.5 1.06-1.16c.3-.4.55-1 .77-1.67q.42-1.47-.06-2.53-.48-1.07-2.05-1.08-.59 0-1.27.3-.7.29-1.2.92h-.03l.29-1.04zm-2.21 4.1c.35-1.27.35-2.31-.14-3.1q-.7-1.18-2.6-1.19-1.62 0-2.97 1.01a5 5 0 0 0-1.9 2.76q-.47 1.68.4 2.6.77.95 2.45.93 1.21 0 2.4-.48 1.2-.5 1.96-1.79h-2.57q-.2.29-.53.45-.29.16-.64.15-.55.01-.83-.38c-.18-.26-.21-.55-.1-.96zm-4.68-1.38q.33-1.18 1.58-1.23c.32.04.59.15.71.37.16.23.23.52.13.86zm-9.08 4.24 1.4-4.96h-2.32l.57-2h7.3l-.57 2h-2.3l-1.4 4.96zm-1.27-4.32q.2-1.51-.65-2.2a4 4 0 0 0-2.24-.63 4.9 4.9 0 0 0-4.88 3.72q-.49 1.74.36 2.68.8.91 2.45.93c.94 0 1.86-.22 2.65-.67q.64-.35 1.11-.89.48-.56.79-1.34h-2.68q-.18.41-.5.7-.32.34-.84.34-.62 0-.76-.48-.16-.44.06-1.27.09-.28.25-.63.14-.35.33-.63.21-.3.5-.45.27-.18.65-.19.45 0 .58.3c.15.15.15.4.1.7zm-13.02 2.94q-.9 0-.74-.56a1 1 0 0 1 .37-.52q.26-.17.59-.22c.2-.08.48-.12.71-.15l.8-.23c-.09.49-.27.86-.55 1.2q-.47.49-1.18.48m3.9 1.34.04-.11a.6.6 0 0 1-.17-.45q-.02-.17.05-.45l.9-3.24q.2-.6.26-1.15c.06-.3 0-.63-.16-.9q-.22-.38-.87-.59a6 6 0 0 0-1.88-.22c-1.26 0-2.3.22-3 .6q-1.04.62-1.34 1.74h2.64q.22-.44.54-.6a1.6 1.6 0 0 1 1.15 0q.26.11.2.49-.18.45-.94.56l-.77.11q-.46.04-.97.15-.46 0-.91.19c-.32.07-.66.22-.93.37a2.6 2.6 0 0 0-1.24 1.64q-.28 1.02.31 1.52c.35.38.86.52 1.5.52a4 4 0 0 0 2.75-.93l-.06.75zm-23.11.04 1.4-4.96h-2.35l.57-2h7.33l-.56 2h-2.35l-1.4 4.96zm-5.87-1.93q-.55 0-.7-.45-.21-.44 0-1.15.2-.75.65-1.16c.27-.3.6-.4.95-.44q1.17.01.77 1.64-.22.71-.63 1.15-.5.43-1.04.41m-2.35-5.03-2.6 9.28h2.67l.86-3.06c.28.6.8.9 1.46.9a4.2 4.2 0 0 0 2.48-.86q.63-.5 1.07-1.16c.3-.4.54-1 .77-1.67q.4-1.47-.07-2.53-.48-1.07-2.04-1.08-.6 0-1.28.3-.69.29-1.19.92h-.04l.3-1.04zm-18.76 6.96h2.64l1.4-4.96h2.12l-1.4 4.96h2.68l1.97-6.97h-7.45zm.4-4.32q.2-1.51-.65-2.2a4 4 0 0 0-2.25-.63q-1.7-.02-3.02.97a5 5 0 0 0-1.86 2.75q-.49 1.74.36 2.68.8.91 2.46.93c.93 0 1.85-.22 2.64-.67q.64-.35 1.11-.89.48-.56.79-1.34h-2.68q-.17.41-.5.7-.32.34-.84.34-.6 0-.76-.48-.16-.44.06-1.27.1-.28.26-.63.14-.35.32-.63.21-.3.5-.45.27-.18.65-.19.44 0 .59.3c.14.15.14.4.1.7zm34.83-4.8 1.83 8.52 6.68-8.58-5.32 3.74zm-.55 2.17-1.98 6.94h3.43zm8.43 0-5.3 6.94h3.32zm-51.09-3.64-6.48 7.35-14.41-7.29 13.62 2.87z" clip-rule="evenodd"/><path fill="currentColor" fill-rule="evenodd" d="m1.3 17.17 7.6-8.62 16.88 8.55-15.96-3.37zm11.9-17.16a2.28 2.28 0 0 0 .36 4.53 2.28 2.28 0 0 0-.37-4.53" clip-rule="evenodd"/></svg>