<svg xmlns="http://www.w3.org/2000/svg" xmlns:xlink="http://www.w3.org/1999/xlink"><symbol id="sprite-by-mish" fill="none" viewBox="0 0 103 41"><path fill="#fff" fill-opacity=".5" d="M4.53 17.21q-1.09 0-1.82-.52a3.3 3.3 0 0 1-1.11-1.44q-.38-.9-.38-2.04t.37-2.03q.38-.9 1.1-1.42.74-.53 1.81-.53 1.06 0 1.83.53.78.51 1.2 1.42t.42 2.03q0 1.14-.42 2.05a3.4 3.4 0 0 1-1.18 1.43q-.76.52-1.82.52m-3.56-.21v-10.08h1.47v4.64h-.17v5.44zm3.36-1.11q.7 0 1.15-.36.46-.36.69-.96t.23-1.36q0-.74-.23-1.34a2 2 0 0 0-.7-.96q-.47-.36-1.2-.36-.68 0-1.13.34t-.65.94a4 4 0 0 0-.21 1.38q0 .79.2 1.39t.67.94 1.18.35m5.87 4.47 1.46-3.98.02 1.17-3.3-8.11h1.53l2.46 6.27h-.44l2.35-6.27h1.48l-4.17 10.92z"/><path fill="#fff" fill-rule="evenodd" d="M56.65 11.46c2.62-1.03 5.48-.27 6.39 1.7.9 1.99-.49 4.42-3.1 5.46s-5.5.26-6.4-1.71c-.9-1.98.49-4.42 3.11-5.45m.5 28.77 4.07-19.23h-8.07l-4.07 19.23zm2.4-2.63c2.37 2.18 6.41 3.4 9.1 3.4 5.67 0 9.18-3.6 9.17-6.95 0-4.16-4.2-5.55-6.2-6.1-1.43-.4-1.92-.72-1.92-1.08 0-.63.78-.8 1.5-.8 1.5 0 4.13.98 5.41 1.78l3.45-4.94a14 14 0 0 0-8.29-2.68c-2.35 0-5.04.79-6.77 2.25a6.6 6.6 0 0 0-2.56 4.97c0 3.16 3.34 4.55 5.35 5.23.97.33 2.08.73 2.08 1.31 0 .52-.59.8-1.35.8-1.4 0-3.76-.8-5.38-1.94zm-14.26-16.6a7.5 7.5 0 0 0-6.5 3.88h-.25c-.28-2.3-2-3.87-4.28-3.87a7.5 7.5 0 0 0-6.48 3.87h-.27l.82-3.78h-8.2l-4.13 19.13h8.2l2.28-10.53c.34-1.58 1.22-2.13 1.99-2.13.72-.03 1.5.6 1.23 1.88l-2.34 10.78h8.2l2.27-10.55c.35-1.58 1.22-2.12 2-2.12.71-.03 1.5.6 1.22 1.88l-2.34 10.79h8.2l2.87-13.33c.73-3.37-1.6-5.9-4.5-5.9m44.9 3.73a7.5 7.5 0 0 1 6.49-3.9c2.9 0 4.9 2.54 4.18 5.95l-2.88 13.45h-8.2l2.33-10.88c.28-1.3-.5-1.93-1.22-1.9-.78 0-1.65.55-2 2.14-.33 1.6-2.27 10.64-2.27 10.64h-8.22l5.92-27.7h8.22l-2.61 12.2z" clip-rule="evenodd"/></symbol><use xlink:href="#sprite-by-mish" width="103" height="41"/><view id="sprite-by-mish-view" viewBox="0 0 103 41"/><symbol id="sprite-checkmark" fill="none" viewBox="0 0 11 8"><path fill="#fff" d="m3.75 7.94-3.75-3.75 1.2-1.19 2.55 2.56 5.56-5.56 1.2 1.19z"/></symbol><use xlink:href="#sprite-checkmark" width="11" height="8" y="41"/><view id="sprite-checkmark-view" viewBox="0 41 11 8"/><symbol id="sprite-chulakov" fill="none" viewBox="0 0 89 10"><g clip-path="url(#a)"><path fill="currentColor" d="M9.65 6.13h-2.79a1.7 1.7 0 0 1-.57 1.17 1.7 1.7 0 0 1-1.25.4c-1.34 0-2.09-.98-2.09-2.7v-.11c0-1.75.8-2.71 2.06-2.71a1.5 1.5 0 0 1 1.15.4c.32.29.49.69.48 1.11h2.89c-.24-2.53-2-3.68-4.54-3.68a4.8 4.8 0 0 0-3.59 1.36 4.7 4.7 0 0 0-1.4 3.53v.1c0 2.95 1.68 4.9 5.1 4.9 2.53 0 4.36-1.29 4.55-3.77m5.37 3.61v-3.78h3.2v3.78h2.8v-9.59h-2.8v3.66h-3.2v-3.66h-2.82v9.59zm17.78-3.93v-5.66h-2.83v5.54c0 1.44-.37 2.05-1.53 2.05-1.19 0-1.53-.65-1.53-2v-5.59h-2.8v5.7c0 2.69 1.57 4.05 4.33 4.05 2.7 0 4.36-1.3 4.36-4.09m9.58 3.93v-2.13h-3.69v-7.46h-2.81v9.59zm6.71-7.36 1.07 3.69h-2.14zm-4.75 7.36h2.6l.53-1.78h3.24l.51 1.78h2.97l-3.1-9.58h-3.62zm14.89 0v-4l2.81 4h3.24l-3.77-5.13 3.58-4.46h-2.92l-2.94 3.8v-3.8h-2.82v9.59zm17.5-4.8v-.1c0-2.98-2.19-4.82-5.17-4.82a5 5 0 0 0-3.66 1.33 4.8 4.8 0 0 0-1.5 3.55v.11c0 2.88 1.97 4.9 5.12 4.9s5.22-2.02 5.22-4.97m-7.42.05v-.1c0-1.75.86-2.72 2.24-2.72 1.37 0 2.25 1 2.25 2.7v.11c.01 1.72-.85 2.76-2.23 2.76-1.36 0-2.26-1-2.26-2.75m12.05 4.75h3.17l3.2-9.58h-2.62l-2 6.73-1.98-6.73h-3z"/></g><defs><clipPath id="a"><path fill="#fff" d="M0 0h88.38v9.9h-88.38z"/></clipPath></defs></symbol><use xlink:href="#sprite-chulakov" width="89" height="10" y="49"/><view id="sprite-chulakov-view" viewBox="0 49 89 10"/><symbol id="sprite-cursor" fill="none" viewBox="0 0 29 29"><path fill="currentColor" stroke="#1859ff" d="m6.95 5.15 19.27 9.22 1.08.51-1.13.4-8.64 3.07-4.55 7.9-.6 1.03-.32-1.15-5.82-20.4-.3-1.06z"/></symbol><use xlink:href="#sprite-cursor" width="29" height="29" y="59"/><view id="sprite-cursor-view" viewBox="0 59 29 29"/><symbol id="sprite-epam" fill="none" viewBox="0 0 59 19"><g clip-path="url(#a)"><path fill="currentColor" d="M23.25.5c1.93 0 2.88 1.04 2.88 2.55v8.06c0 1.53-.95 2.55-2.88 2.55-1.31 0-2.21-.5-2.75-.93v4.15h-2.27v-16.23h2.27v.82a4.2 4.2 0 0 1 2.75-.97m-10.14-.02q3.62 0 3.63 2.92v4.4h-5.43v3.02q0 1.15 1.41 1.14h.42q1.42 0 1.41-1.14v-1.47h2.19v1.41c0 1.92-1.21 2.92-3.63 2.92h-.46c-2.4 0-3.63-.98-3.63-2.7v-7.35c0-2.15 1.2-3.15 3.63-3.15zm18.48 0q3.62 0 3.63 2.92v10.11h-2.27v-.8a4.3 4.3 0 0 1-2.75.95c-1.8 0-2.65-.83-2.65-2.28v-2.34h-.05c0-1.59.64-2.23 2.36-2.7l3.04-.83v-2.17q.01-1.17-1.42-1.18h-.36q-1.42.01-1.41 1.18v1.82h-2.19v-1.76c0-1.92 1.21-2.92 3.63-2.92zm15.42.02c1.75 0 2.65.87 2.65 2.28v10.75h-2.27v-10.38q-.02-.95-1.08-.93-.91-.02-2.08.64v10.65h-2.22v-10.36q-.02-.95-1.08-.93-.91-.02-2.08.64v10.65h-2.27v-12.86h2.27v.83c.64-.5 1.52-.98 2.75-.98 1.16 0 1.93.38 2.34 1.06a5 5 0 0 1 3.06-1.06m-40.84 3.7-3.78 2.9 3.78 2.85v2.42l-5.79-4.38v-1.74l5.8-4.42zm52.17 2.05v1.74l-5.79 4.38v-2.42l3.78-2.85-3.78-2.92v-2.35zm-27.49 1.47c-.82.27-1.1.6-1.1 1.34v1.97q.01.93 1.1.93c.7-.02 1.31-.2 2.06-.62v-4.24zm-8.26-5.5c-.74 0-1.47.25-2.08.66v8.4a3.6 3.6 0 0 0 2.08.66c.82 0 1.31-.31 1.31-1.05v-7.61c0-.75-.46-1.06-1.3-1.06m-9.84-.02q-1.42 0-1.42 1.14v2.73h3.2v-2.73q0-1.15-1.42-1.14z"/></g><defs><clipPath id="a"><path fill="#fff" d="M0 0h58.42v18.49h-58.42z"/></clipPath></defs></symbol><use xlink:href="#sprite-epam" width="59" height="19" y="88"/><view id="sprite-epam-view" viewBox="0 88 59 19"/><symbol id="sprite-hand" fill="none" viewBox="0 0 26 26"><path fill="#1859FF" stroke="currentColor" stroke-width=".2" d="M13.4 2.9c.87 0 1.61.53 1.93 1.29a2.1 2.1 0 0 1 3.17 1.81v1.1a2.1 2.1 0 0 1 3 1.9v8a6.1 6.1 0 0 1-6.1 6.1h-1a6 6 0 0 1-4.64-2.14l-.08-.07-5-4.7a2.47 2.47 0 0 1-.22-3.36 2.37 2.37 0 0 1 3.24-.4l.6.43v-5.86a2.1 2.1 0 0 1 3-1.9v-.1c0-1.16.94-2.1 2.1-2.1Zm0 1.2a.9.9 0 0 0-.9.9v7.1h-1.2v-5.1a.9.9 0 1 0-1.8 0v8.24l-.17-.11-2.34-1.74a1.17 1.17 0 0 0-1.6.2 1.27 1.27 0 0 0 .1 1.72l5 4.7.1.1h.02a4.9 4.9 0 0 0 3.78 1.79h1a4.9 4.9 0 0 0 4.9-4.9v-8a.9.9 0 1 0-1.8 0v3.1h-1.2v-6.1a.9.9 0 0 0-1.8 0v6.1h-1.2v-7.1a.9.9 0 0 0-.9-.9Z"/><path fill="#fff" d="M13.4 4a1 1 0 0 0-1 1v7h-1v-5a1 1 0 0 0-2 0v8.05l-2.35-1.74a1.27 1.27 0 0 0-1.74.22c-.45.54-.4 1.37.12 1.85l5 4.7.1.1a5 5 0 0 0 3.87 1.82h1a5 5 0 0 0 5-5v-8a1 1 0 0 0-2 0v3h-1v-6a1 1 0 0 0-2 0v6h-1v-7a1 1 0 0 0-1-1"/></symbol><use xlink:href="#sprite-hand" width="26" height="26" y="107"/><view id="sprite-hand-view" viewBox="0 107 26 26"/><symbol id="sprite-mish" fill="none" viewBox="0 0 53 20"><g clip-path="url(#a)"><path fill="currentColor" fill-rule="evenodd" d="M14.86 8.7c1.22-1.92 2.8-2.57 4.06-2.57 1.44 0 3.01.96 2.4 3.97l-1.83 9.32h-5.03l1.4-7.09c.18-.96-.13-1.44-.65-1.44-.53 0-1.1.4-1.27 1.44l-1.4 7.09h-5.02l1.4-7.09c.17-.96-.14-1.44-.66-1.44-.53 0-1.1.4-1.27 1.44l-1.4 7.09h-5.02l2.53-12.94h5.03l-.44 2.22h.22c1.22-1.92 2.8-2.58 4.06-2.58 1.18 0 2.45.66 2.54 2.58zm13.54-2.22h-5.03l-2.53 12.93h5.03zm4.63 13.33c-2.18 0-4.46-.65-5.94-2.06l2.27-3.32c2.53 1.75 4.76 1.49 4.76.88 0-.4-.65-.66-1.48-.96-1.53-.57-3.67-1.36-3.67-3.85 0-2.89 3.1-4.42 5.63-4.42 1.97 0 3.59.62 5.16 1.75l-2.19 3.24c-2.36-1.62-4.32-1.31-4.32-.62 0 .22.48.4 1.13.62 1.58.57 4.15 1.44 4.15 4.1 0 2.28-2.05 4.64-5.5 4.64m17-13.68c-1.27 0-2.84.7-4.07 2.58h-.21l1.53-7.7h-5.03l-3.63 18.4h5.03l1.4-7.08c.21-1.05.74-1.44 1.26-1.44s.83.48.66 1.44l-1.4 7.09h5.03l1.83-9.32c.61-3.01-.96-3.98-2.4-3.98m-20.45-4.67c-.57-1.31-2.36-1.84-3.98-1.14s-2.49 2.32-1.92 3.63 2.36 1.84 3.98 1.14 2.49-2.32 1.92-3.63" clip-rule="evenodd"/></g><defs><clipPath id="a"><path fill="#fff" d="M0 0h52.83v19.8h-52.83z"/></clipPath></defs></symbol><use xlink:href="#sprite-mish" width="53" height="20" y="133"/><view id="sprite-mish-view" viewBox="0 133 53 20"/><symbol id="sprite-mts" fill="none" viewBox="0 0 29 29"><path fill="currentColor" d="M28.17 28.17h-28.17v-28.17h28.17zm-5.73-8.8q-1.15 0-1.96.32a2.5 2.5 0 0 0-1.27 1.08 4 4 0 0 0-.44 1.9v.16q.02 1.18.44 1.9.44.76 1.27 1.09.82.32 1.96.32a7 7 0 0 0 1.84-.22 2.5 2.5 0 0 0 1.19-.73q.5-.59.55-1.36h-1.59a1 1 0 0 1-.32.64 1.3 1.3 0 0 1-.63.32q-.52.1-1.05.1a3 3 0 0 1-1.1-.16 1.4 1.4 0 0 1-.72-.55 2 2 0 0 1-.26-1.1v-.66q0-.7.26-1.1.27-.38.71-.54.55-.17 1.11-.16.52 0 1.05.1.36.06.63.32t.32.63h1.58a2.3 2.3 0 0 0-.54-1.36 2.5 2.5 0 0 0-1.2-.73 7 7 0 0 0-1.84-.22m-3.66-15.9h2.83v5.23h1.59v-5.23h2.83v-1.31h-7.25zm-16.6 5.21h1.58v-4.65l2.03 3.93h1.44l2.03-3.93v4.65h1.58v-6.5h-2.26l-2.07 4.3-2.07-4.3h-2.26z"/></symbol><use xlink:href="#sprite-mts" width="29" height="29" y="153"/><view id="sprite-mts-view" viewBox="0 153 29 29"/><symbol id="sprite-rustore" fill="none" viewBox="0 0 100 26"><g fill="currentColor" clip-path="url(#a)"><path d="M13.05 0c5.67 0 8.51 0 10.28 1.76 1.76 1.77 1.76 4.6 1.76 10.28v1c0 5.68 0 8.52-1.76 10.29s-4.6 1.76-10.28 1.76h-1c-5.68 0-8.52 0-10.29-1.76-1.76-1.77-1.76-4.6-1.76-10.28v-1c0-5.68 0-8.52 1.76-10.29 1.77-1.76 4.6-1.76 10.28-1.76zm1.82 4.65a1.22 1.22 0 0 0-1.51 1.17v1.48l-3.06-.77a1.22 1.22 0 0 0-1.52 1.17v1.48l-3.06-.77a1.22 1.22 0 0 0-1.51 1.18v8.17c0 .7.47 1.3 1.15 1.47l4.86 1.21a1.2 1.2 0 0 0 1.51-1.17v-1.48l3.07.77a1.22 1.22 0 0 0 1.5-1.18v-1.47l3.07.77a1.22 1.22 0 0 0 1.51-1.18v-8.17c0-.69-.47-1.3-1.15-1.46z"/><path d="M13.12 18.14a.5.5 0 0 1-.37-.46l-.22-6.24a1.9 1.9 0 0 0-1.31-1.68.1.1 0 0 0-.1.04.1.1 0 0 0 .02.1c.16.12.6.52.6 1.2v6.69zm4.57-1.88a.5.5 0 0 1-.37-.46l-.21-6.24a1.9 1.9 0 0 0-1.31-1.68.1.1 0 0 0-.1.04.1.1 0 0 0 .02.1c.15.12.59.52.59 1.2v6.7zm21.85-1.85c1.9-.48 3.15-1.93 3.15-3.84 0-2.35-1.89-4-4.53-4h-4.7v12.65h2.17v-4.64h1.54l3.36 4.64h2.55zm-1.38-5.86c1.36 0 2.3.82 2.3 2.02s-.94 2.03-2.3 2.03h-2.53v-4.05zm9.81 10.85c1.14 0 2.19-.59 2.79-1.58l.41 1.4h1.56v-9.33h-2.08v5.4c0 1.33-.89 2.26-2.1 2.26-1.2 0-2.03-.93-2.03-2.26v-5.4h-2.08v5.64c0 2.24 1.52 3.87 3.53 3.87m11.4 0c2.4 0 4.4-1.36 4.4-3.62 0-2.53-2.08-3.27-3.87-3.88-1.4-.46-2.6-.9-2.6-2.02 0-1 .91-1.51 2-1.51 1.14 0 1.95.6 2.4 1.6l2.07-.34a4.56 4.56 0 0 0-4.54-3.23c-2.32 0-4.16 1.32-4.16 3.58 0 2.55 2.08 3.25 3.87 3.84 1.37.45 2.6.88 2.6 2.03 0 1-.92 1.58-2.15 1.58-1.41 0-2.17-.66-2.84-1.87l-2.1.36c.62 2.14 2.57 3.48 4.92 3.48m10.06-1.97q-1.05 0-1.05-1.04v-4.7h2.8v-1.8h-2.8v-2.69h-1.56l-.52 2.7h-1.54v1.79h1.54v4.7c0 1.83 1.07 2.83 3.13 2.83h1.76l.18-1.8zm7.88 1.97c2.95 0 5.03-2 5.03-4.84s-2.08-4.84-5.03-4.84-5.03 2-5.03 4.84 2.08 4.84 5.03 4.84m0-1.88c-1.7 0-2.86-1.2-2.86-2.96s1.16-2.96 2.86-2.96 2.86 1.2 2.86 2.96-1.16 2.96-2.86 2.96m8.92 1.7v-5.5c0-1.19.58-1.85 1.85-1.85h1.2l-.19-1.98h-.4c-1.1 0-1.95.3-2.58 1.35l-.4-1.35h-1.56v9.33zm13.28-4.77c0-2.69-2.02-4.73-4.88-4.73s-4.89 2.02-4.89 4.84 2.03 4.84 4.89 4.84c1.95 0 3.8-.91 4.5-2.69l-1.95-.32a2.9 2.9 0 0 1-2.42 1.13c-1.6 0-2.65-.97-2.84-2.4h7.56zm-4.9-2.94c1.31 0 2.29.82 2.63 1.99h-5.2c.34-1.2 1.31-2 2.58-2"/></g><defs><clipPath id="a"><path fill="red" d="M0 0h99.52v25.1h-99.52z"/></clipPath></defs></symbol><use xlink:href="#sprite-rustore" width="100" height="26" y="182"/><view id="sprite-rustore-view" viewBox="0 182 100 26"/><symbol id="sprite-sber" fill="none" viewBox="0 0 81 22"><path fill="currentColor" d="m63.71 6.54 2.97-2.2h-9.95v13.15h9.95v-2.2h-7.1v-3.35h6.07v-2.2h-6.08v-3.2zm-14.5 2.93h-3.44v-2.93h5.51l2.97-2.2h-11.33v13.15h5.93c3.31 0 5.23-1.5 5.23-4.13 0-2.52-1.72-3.9-4.87-3.9m-.47 5.84h-2.98v-3.64h2.98c1.8 0 2.65.6 2.65 1.83s-.9 1.8-2.65 1.8m26-10.94h-5.4v13.14h2.84v-3.72h2.59c3.45 0 5.6-1.8 5.6-4.71s-2.15-4.71-5.62-4.71m-.07 7.22h-2.52v-5.03h2.52c1.84 0 2.83.9 2.83 2.52s-1 2.51-2.83 2.51m-36.63 3.08a5 5 0 0 1-2.46.62c-2.56 0-4.41-1.82-4.41-4.34s1.85-4.35 4.41-4.35a4.3 4.3 0 0 1 2.59.82l2.05-1.5-.13-.13a6.8 6.8 0 0 0-4.6-1.6 7.3 7.3 0 0 0-5.03 1.88 6.5 6.5 0 0 0-1.99 4.8 6.8 6.8 0 0 0 1.98 4.88 7 7 0 0 0 5.02 1.93c2.05 0 3.84-.7 5.05-2l-1.83-1.35zm-18.46-10.39q.76 1.01 1.31 2.17l-9.95 7.34-4.18-2.62v-3.15l4.16 2.6zm-17.07 6.67.02-.43-2.52-.13-.02.54c0 3 1.23 5.74 3.21 7.72l1.79-1.79a8.3 8.3 0 0 1-2.48-5.91m8.4-8.4q.21 0 .43.03l.13-2.52-.54-.02a11 11 0 0 0-7.73 3.2l1.78 1.8a8.3 8.3 0 0 1 5.93-2.48m0 16.78-.42-.02-.13 2.51.53.02a11 11 0 0 0 7.74-3.2l-1.79-1.79a8.2 8.2 0 0 1-5.93 2.48"/><path fill="currentColor" d="m15.66 4 2.14-1.57a11 11 0 0 0-6.88-2.43v2.52a8.5 8.5 0 0 1 4.74 1.48m6.21 6.93q0-1-.17-1.96l-2.35 1.74v.22a8.3 8.3 0 0 1-2.78 6.22l1.7 1.87a11 11 0 0 0 3.6-8.1m-10.94 8.4a8.4 8.4 0 0 1-6.23-2.78l-1.88 1.7a11 11 0 0 0 8.1 3.6zm-5.63-14.6-1.7-1.88c-2.22 2-3.6 4.88-3.6 8.09h2.52a8.4 8.4 0 0 1 2.78-6.22"/></symbol><use xlink:href="#sprite-sber" width="81" height="22" y="208"/><view id="sprite-sber-view" viewBox="0 208 81 22"/><symbol id="sprite-sportmaster" fill="none" viewBox="0 0 113 18"><path fill="currentColor" fill-rule="evenodd" d="M41.03 13.49q2 0 3.26-1.12a5 5 0 0 0 1.65-2.57q.44-1.5-.2-2.57t-2.64-1.08c-2 0-2.42.38-3.25 1.08a5 5 0 0 0-1.65 2.57q-.45 1.57.2 2.57.64 1.12 2.63 1.12m.5-1.79c-.4 0-.7-.14-.82-.52q-.2-.49.06-1.37.23-.83.72-1.38a1.5 1.5 0 0 1 1.1-.49q.62-.01.84.49.18.55-.06 1.38a3 3 0 0 1-.72 1.37c-.33.38-.7.52-1.11.52m66.12-.35q-.55 0-.69-.45-.22-.44-.01-1.15c.14-.48.36-.9.66-1.15.27-.3.6-.41.95-.45q1.17.01.76 1.64a3 3 0 0 1-.62 1.15c-.35.3-.68.41-1.05.41m-2.34-5.03-2.61 9.28h2.68l.86-3.06q.44.9 1.46.9a4.2 4.2 0 0 0 2.47-.86 5 5 0 0 0 1.07-1.15c.3-.41.55-1.01.77-1.68q.42-1.47-.07-2.53c-.49-1.06-1-1.08-2.04-1.08q-.59 0-1.27.3c-.47.18-.86.52-1.2.93h-.03l.29-1.05zm-2.21 4.1c.35-1.27.35-2.31-.14-3.1q-.7-1.17-2.6-1.18-1.62 0-2.97 1a5 5 0 0 0-1.9 2.76q-.47 1.68.4 2.6.78.95 2.45.93 1.21.02 2.4-.48 1.2-.5 1.96-1.79h-2.57a1.4 1.4 0 0 1-.53.45q-.29.16-.64.15-.55.01-.83-.37-.27-.37-.1-.97zm-4.68-1.38q.33-1.17 1.58-1.23c.32.04.59.15.71.37a1 1 0 0 1 .13.86zm-9.08 4.24 1.39-4.95h-2.3l.56-2.01h7.3l-.57 2h-2.3l-1.4 4.96zm-1.27-4.32q.22-1.51-.65-2.2a4 4 0 0 0-2.24-.63 4.9 4.9 0 0 0-4.89 3.72q-.48 1.73.37 2.68.8.92 2.45.93a5.4 5.4 0 0 0 2.65-.67 4 4 0 0 0 1.11-.89q.48-.56.79-1.34h-2.69q-.16.41-.5.7-.32.34-.83.34-.62 0-.76-.48-.16-.43.06-1.27a5 5 0 0 1 .25-.63q.14-.35.33-.63c.19-.28.32-.34.5-.45q.27-.18.65-.19.45 0 .58.3c.15.15.15.41.1.7zm-13.02 2.94q-.9 0-.74-.56a1 1 0 0 1 .37-.52q.26-.17.59-.22c.2-.08.48-.12.71-.15l.8-.23c-.1.49-.27.86-.55 1.2q-.47.49-1.18.48m3.9 1.34.04-.11a.6.6 0 0 1-.17-.45 1 1 0 0 1 .05-.44l.9-3.24q.2-.61.26-1.16.08-.46-.16-.9-.22-.37-.87-.59a6 6 0 0 0-1.88-.22c-1.26 0-2.3.22-3 .6q-1.04.62-1.34 1.74h2.64q.22-.44.54-.6c.24-.07.4-.1.59-.1a2 2 0 0 1 .56.1q.26.1.2.5-.18.44-.94.55l-.77.11q-.45.05-.97.15-.46.01-.91.19a4 4 0 0 0-.93.37 3 3 0 0 0-.73.63q-.34.4-.51 1-.28 1.03.31 1.53c.35.38.86.53 1.5.53a4 4 0 0 0 2.75-.93l-.06.74zm-23.11.04 1.4-4.95h-2.35l.57-2.01h7.33l-.56 2h-2.35l-1.4 4.96zm-5.87-1.93q-.55 0-.7-.45-.21-.44 0-1.15c.13-.48.36-.9.65-1.15.28-.3.6-.41.95-.45q1.17.01.77 1.64a3 3 0 0 1-.63 1.15q-.5.43-1.04.41m-2.35-5.03-2.6 9.28h2.67l.86-3.06c.28.6.8.9 1.47.9q1.21.02 2.47-.86a5 5 0 0 0 1.07-1.15c.3-.41.54-1.01.77-1.68q.4-1.47-.07-2.53c-.47-1.06-1-1.08-2.04-1.08q-.6 0-1.28.3c-.46.18-.85.52-1.19.93h-.04l.3-1.05zm-18.76 6.96h2.64l1.4-4.95h2.12l-1.4 4.95h2.69l1.96-6.96h-7.45zm.4-4.32q.2-1.51-.65-2.2a4 4 0 0 0-2.25-.63 4.9 4.9 0 0 0-4.88 3.72q-.49 1.73.36 2.68.8.92 2.46.93c.93 0 1.85-.22 2.64-.67a4 4 0 0 0 1.11-.89q.48-.56.79-1.34h-2.68q-.17.41-.5.7-.32.34-.84.34-.6.01-.75-.48-.16-.43.05-1.27.1-.28.26-.63.14-.35.32-.63c.18-.28.32-.34.5-.45q.27-.18.65-.19.45.01.59.3c.14.15.14.41.1.7zm34.83-4.81 1.83 8.52 6.68-8.58-5.32 3.74zm-.55 2.17-1.98 6.94h3.43zm8.43 0-5.3 6.94h3.32zm-51.09-3.64-6.48 7.35-14.41-7.29 13.62 2.87z" clip-rule="evenodd"/><path fill="currentColor" fill-rule="evenodd" d="m1.3 17.17 7.6-8.62 16.88 8.55-15.96-3.37zm11.9-17.16a2.3 2.3 0 0 0-2.09 2.44 2.3 2.3 0 0 0 2.45 2.08 2.3 2.3 0 0 0 2.08-2.44 2.3 2.3 0 0 0-2.45-2.08" clip-rule="evenodd"/></symbol><use xlink:href="#sprite-sportmaster" width="113" height="18" y="230"/><view id="sprite-sportmaster-view" viewBox="0 230 113 18"/><symbol id="sprite-vc" fill="none" viewBox="0 0 30 28"><g clip-path="url(#a)"><path fill="currentColor" d="M20.11 22.23c0 2.12 1.55 2.58 2.33 2.54 2.56 0 3.2-1.85 3.2-2.77v-5.41h-1.99v-2h4.1v9.85h1.43v1.88h-3.32v-1.88c-.7 1.77-2.72 2.13-3.65 2.1-3.27 0-4.09-2.29-4.09-3.43v-6.52h-1.76v-2h3.75zm-17.24 4.09h-2.21v-2h2.2zm5.64-9.3c1.88-2.2 2.54-2.42 3.64-2.42h2v3.53h-2v-1.77h-.66c-.77 0-2.87 1.24-2.87 3.1v4.87h5.08v1.99h-8.84v-2h1.99v-7.84h-2v-1.88h3.66zm15.03-17.02c2.3 0 4.13 1.03 4.76 1.55v2.87h-2.22v-1.88c-.07-.25-.61-.77-2.2-.77-2 0-4.1 1.1-4.1 4.31s2.33 4.1 3.76 4.1 2.44-.56 3.43-1.44l1.66 1.1c-.67.78-2.54 2.32-4.76 2.32-2.76 0-6.3-1.99-6.3-6.08s3.1-6.08 5.97-6.08m-12.93 8.85 3.1-8.85h3.42v2.1h-1.99l-3.65 9.95h-1.99l-3.54-9.84h-1.99v-2.21h3.54z"/></g><defs><clipPath id="a"><path fill="#fff" d="M0 0h29.71v27.07h-29.71z"/></clipPath></defs></symbol><use xlink:href="#sprite-vc" width="30" height="28" y="248"/><view id="sprite-vc-view" viewBox="0 248 30 28"/><symbol id="sprite-vtb" fill="none" viewBox="0 0 63 23"><g clip-path="url(#a)"><path fill="currentColor" fill-rule="evenodd" d="m4.27 0-1.07 2.93h14.8l1.07-2.93zm-1.6 4.39-1.07 2.92h14.8l1.07-2.92zm-1.6 4.39-1.07 2.92h14.8l1.07-2.92z" clip-rule="evenodd"/><mask id="b" width="41" height="19" x="22" y="4" maskUnits="userSpaceOnUse" style="mask-type:luminance"><path fill="#fff" d="M22.2 22.36h40.52v-17.92h-40.52z"/></mask><g mask="url(#b)"><path fill="currentColor" fill-rule="evenodd" d="M31.46 12.81v.07a6 6 0 0 1 1.66.96 4.2 4.2 0 0 1 1.51 3.5c0 2.45-1.3 4.22-3.41 4.78-.65.18-1.33.24-2.59.24h-6.43v-17.92h5.7c1.16 0 1.96.07 2.67.25 2.06.56 3.42 1.99 3.42 4.25 0 1.2-.44 2.23-1.14 2.91a4 4 0 0 1-1.39.96m-5.69 1.9v4.7h2.46c.74 0 1.42-.05 1.91-.52.5-.47.7-1.05.7-1.83a2.6 2.6 0 0 0-.45-1.55c-.53-.65-1.17-.8-2.28-.8zm-.03-3.1h2c.62 0 .92 0 1.23-.1.83-.25 1.36-1 1.36-2.01 0-1.21-.56-1.74-1.36-1.99a5 5 0 0 0-1.35-.12h-1.88zm14.24 10.75v-14.91h-5.13v-3h14.27l-1.02 3h-4.55v14.91zm10.25 0v-17.92h11.56l-1.01 3.01h-7.02v3.97h2.86c2.31 0 3.51.56 4.34 1.27.65.56 1.75 1.8 1.75 4.25a5.2 5.2 0 0 1-2.09 4.43c-1.1.77-2.27 1-4.64 1zm3.53-3h2.68c1.02 0 1.63-.25 2.06-.81.22-.28.52-.78.52-1.7s-.3-1.59-.92-2.05c-.37-.28-.86-.44-1.69-.44h-2.65z" clip-rule="evenodd"/></g></g><defs><clipPath id="a"><path fill="#fff" d="M0 0h62.84v22.54h-62.84z"/></clipPath></defs></symbol><use xlink:href="#sprite-vtb" width="63" height="23" y="276"/><view id="sprite-vtb-view" viewBox="0 276 63 23"/></svg>