<svg xmlns="http://www.w3.org/2000/svg" xmlns:xlink="http://www.w3.org/1999/xlink"><symbol id="sprite-checkmark" fill="none" viewBox="0 0 11 8"><path fill="#fff" d="m3.75 7.94-3.75-3.75 1.2-1.19 2.55 2.56 5.56-5.56 1.2 1.19z"/></symbol><use xlink:href="#sprite-checkmark" width="11" height="8"/><view id="sprite-checkmark-view" viewBox="0 0 11 8"/><symbol id="sprite-cursor" fill="none" viewBox="0 0 29 29"><path fill="#1859ff" stroke="#1859ff" d="m6.95 5.15 19.27 9.22 1.08.51-1.13.4-8.64 3.07-4.55 7.9-.6 1.03-.32-1.15-5.82-20.4-.3-1.06z"/></symbol><use xlink:href="#sprite-cursor" width="29" height="29" y="8"/><view id="sprite-cursor-view" viewBox="0 8 29 29"/><symbol id="sprite-hand" fill="none" viewBox="0 0 26 26"><path fill="#1859FF" stroke="currentColor" stroke-width=".2" d="M13.4 2.9c.87 0 1.61.53 1.93 1.29a2.1 2.1 0 0 1 3.17 1.81v1.1a2.1 2.1 0 0 1 3 1.9v8a6.1 6.1 0 0 1-6.1 6.1h-1a6 6 0 0 1-4.64-2.14l-.08-.07-5-4.7a2.47 2.47 0 0 1-.22-3.36 2.37 2.37 0 0 1 3.24-.4l.6.43v-5.86a2.1 2.1 0 0 1 3-1.9v-.1c0-1.16.94-2.1 2.1-2.1Zm0 1.2a.9.9 0 0 0-.9.9v7.1h-1.2v-5.1a.9.9 0 1 0-1.8 0v8.24l-.17-.11-2.34-1.74a1.17 1.17 0 0 0-1.6.2 1.27 1.27 0 0 0 .1 1.72l5 4.7.1.1h.02a4.9 4.9 0 0 0 3.78 1.79h1a4.9 4.9 0 0 0 4.9-4.9v-8a.9.9 0 1 0-1.8 0v3.1h-1.2v-6.1a.9.9 0 0 0-1.8 0v6.1h-1.2v-7.1a.9.9 0 0 0-.9-.9Z"/><path fill="#fff" d="M13.4 4a1 1 0 0 0-1 1v7h-1v-5a1 1 0 0 0-2 0v8.05l-2.35-1.74a1.27 1.27 0 0 0-1.74.22c-.45.54-.4 1.37.12 1.85l5 4.7.1.1a5 5 0 0 0 3.87 1.82h1a5 5 0 0 0 5-5v-8a1 1 0 0 0-2 0v3h-1v-6a1 1 0 0 0-2 0v6h-1v-7a1 1 0 0 0-1-1"/></symbol><use xlink:href="#sprite-hand" width="26" height="26" y="37"/><view id="sprite-hand-view" viewBox="0 37 26 26"/></svg>